<svg xmlns="http://www.w3.org/2000/svg" viewBox="0 0 64 64" fill="none">
  <!-- Chat Bubble Bot Head -->
  <path d="M8 12 C8 6 14 2 22 2 L42 2 C50 2 56 6 56 12 L56 32 C56 38 50 42 42 42 L22 42 L12 52 L12 42 C10 42 8 40 8 38 L8 12 Z" fill="#F59E0B"/>
  
  <!-- Ear Panels -->
  <rect x="2" y="16" width="6" height="14" rx="3" fill="#D97706"/>
  <rect x="56" y="16" width="6" height="14" rx="3" fill="#D97706"/>
  
  <!-- Antenna -->
  <line x1="32" y1="2" x2="32" y2="-6" stroke="#1F2937" stroke-width="2" stroke-linecap="round"/>
  <circle cx="32" cy="-8" r="4" fill="#3B82F6"/>
  
  <!-- Eyes -->
  <circle cx="22" cy="18" r="6" fill="white"/>
  <circle cx="42" cy="18" r="6" fill="white"/>
  
  <!-- Smile -->
  <path d="M22 30 Q32 38 42 30" stroke="white" stroke-width="4" stroke-linecap="round" fill="none"/>
</svg>
