<svg xmlns="http://www.w3.org/2000/svg" width="148mm" height="210mm" viewBox="0 0 1480 2100">
  <style>
    :root {
      --gf-bg: #fff8e1;
      --gf-text: #f57c00;
      --gf-accent: #ff6f00;
    }
    #gf\:bg { fill: var(--gf-bg); }
    .gf-text { fill: var(--gf-text); }
    .gf-accent { fill: var(--gf-accent); }
  </style>

  <rect id="gf:bg" x="0" y="0" width="1480" height="2100" />

  <circle cx="170" cy="170" r="35" class="gf-accent" opacity="0.25" />
  <circle cx="1310" cy="170" r="35" class="gf-accent" opacity="0.25" />
  <circle cx="170" cy="1930" r="35" class="gf-accent" opacity="0.25" />
  <circle cx="1310" cy="1930" r="35" class="gf-accent" opacity="0.25" />
  
  <path d="M 140 210 L 170 170 L 200 210" fill="var(--gf-accent)" opacity="0.3" />
  <path d="M 1280 210 L 1310 170 L 1340 210" fill="var(--gf-accent)" opacity="0.3" />
  <path d="M 140 1890 L 170 1930 L 200 1890" fill="var(--gf-accent)" opacity="0.3" />
  <path d="M 1280 1890 L 1310 1930 L 1340 1890" fill="var(--gf-accent)" opacity="0.3" />

  <text id="gf:text:headline" x="740" y="350" text-anchor="middle" font-family="Inter, system-ui, -apple-system, Segoe UI, Roboto, Helvetica, Arial" font-size="100" font-weight="800" class="gf-text">Feiert mit uns!</text>
  <text id="gf:text:subline" x="740" y="470" text-anchor="middle" font-family="Inter, system-ui, -apple-system, Segoe UI, Roboto, Helvetica, Arial" font-size="48" font-weight="600" class="gf-text" opacity="0.9">Unvergessliche Augenblicke</text>

  <text id="gf:text:eventName" x="740" y="640" text-anchor="middle" font-family="Inter, system-ui, -apple-system, Segoe UI, Roboto, Helvetica, Arial" font-size="54" font-weight="600" class="gf-accent">Anna & Ben</text>

  <rect id="gf:qr" x="515" y="860" width="450" height="450" rx="32" fill="#ffffff" stroke="var(--gf-accent)" stroke-width="8" />

  <text id="gf:text:callToAction" x="740" y="1420" text-anchor="middle" font-family="Inter, system-ui, -apple-system, Segoe UI, Roboto, Helvetica, Arial" font-size="46" font-weight="600" class="gf-text">Scannen & feiern</text>

  <circle cx="670" cy="1700" r="10" class="gf-accent" opacity="0.6" />
  <circle cx="740" cy="1700" r="14" class="gf-accent" />
  <circle cx="810" cy="1700" r="10" class="gf-accent" opacity="0.6" />
  <text x="740" y="1780" text-anchor="middle" font-family="Inter, system-ui, -apple-system, Segoe UI, Roboto, Helvetica, Arial" font-size="28" font-weight="400" class="gf-text">gästefotos.com</text>
</svg>
