<svg xmlns="http://www.w3.org/2000/svg" width="105mm" height="148mm" viewBox="0 0 1050 1480">
  <style>
    :root {
      --gf-bg: #fff8e1;
      --gf-text: #f57c00;
      --gf-accent: #ff6f00;
    }
    #gf\:bg { fill: var(--gf-bg); }
    .gf-text { fill: var(--gf-text); }
    .gf-accent { fill: var(--gf-accent); }
  </style>

  <rect id="gf:bg" x="0" y="0" width="1050" height="1480" />

  <circle cx="120" cy="120" r="25" class="gf-accent" opacity="0.25" />
  <circle cx="930" cy="120" r="25" class="gf-accent" opacity="0.25" />
  <circle cx="120" cy="1360" r="25" class="gf-accent" opacity="0.25" />
  <circle cx="930" cy="1360" r="25" class="gf-accent" opacity="0.25" />
  
  <path d="M 100 150 L 120 120 L 140 150" fill="var(--gf-accent)" opacity="0.3" />
  <path d="M 910 150 L 930 120 L 950 150" fill="var(--gf-accent)" opacity="0.3" />
  <path d="M 100 1330 L 120 1360 L 140 1330" fill="var(--gf-accent)" opacity="0.3" />
  <path d="M 910 1330 L 930 1360 L 950 1330" fill="var(--gf-accent)" opacity="0.3" />

  <text id="gf:text:headline" x="525" y="270" text-anchor="middle" font-family="Inter, system-ui, -apple-system, Segoe UI, Roboto, Helvetica, Arial" font-size="74" font-weight="800" class="gf-text">Feiert mit uns!</text>
  <text id="gf:text:subline" x="525" y="350" text-anchor="middle" font-family="Inter, system-ui, -apple-system, Segoe UI, Roboto, Helvetica, Arial" font-size="36" font-weight="600" class="gf-text" opacity="0.9">Unvergessliche Augenblicke</text>

  <text id="gf:text:eventName" x="525" y="460" text-anchor="middle" font-family="Inter, system-ui, -apple-system, Segoe UI, Roboto, Helvetica, Arial" font-size="40" font-weight="600" class="gf-accent">Anna & Ben</text>

  <rect id="gf:qr" x="385" y="620" width="280" height="280" rx="24" fill="#ffffff" stroke="var(--gf-accent)" stroke-width="6" />

  <text id="gf:text:callToAction" x="525" y="990" text-anchor="middle" font-family="Inter, system-ui, -apple-system, Segoe UI, Roboto, Helvetica, Arial" font-size="34" font-weight="600" class="gf-text">Scannen & feiern</text>

  <circle cx="480" cy="1210" r="8" class="gf-accent" opacity="0.6" />
  <circle cx="525" cy="1210" r="10" class="gf-accent" />
  <circle cx="570" cy="1210" r="8" class="gf-accent" opacity="0.6" />
  <text x="525" y="1280" text-anchor="middle" font-family="Inter, system-ui, -apple-system, Segoe UI, Roboto, Helvetica, Arial" font-size="22" font-weight="400" class="gf-text">gästefotos.com</text>
</svg>
