<svg xmlns="http://www.w3.org/2000/svg" width="105mm" height="148mm" viewBox="0 0 1050 1480">
  <style>
    :root { --gf-bg:#fffaf7; --gf-text:#2a2220; --gf-accent:#b7798a; }
    #gf\:bg { fill: var(--gf-bg); }
    .gf-text { fill: var(--gf-text); }
    .gf-accent { fill: var(--gf-accent); }
  </style>

  <rect id="gf:bg" x="0" y="0" width="1050" height="1480"/>

  <!-- elegant floral frame -->
  <rect x="70" y="70" width="910" height="1340" rx="40" fill="none" stroke="var(--gf-accent)" stroke-width="6" opacity="0.55"/>
  <path d="M150 170c90-120 220-120 310 0-120-40-190 20-230 120-20-60-40-90-80-120z" fill="var(--gf-accent)" opacity="0.16"/>
  <path d="M900 1310c-90 120-220 120-310 0 120 40 190-20 230-120 20 60 40 90 80 120z" fill="var(--gf-accent)" opacity="0.16"/>

  <text id="gf:text:headline" x="525" y="310" text-anchor="middle" font-family="Playfair Display, Georgia, 'Times New Roman', serif" font-size="72" font-weight="700" class="gf-text">Unsere Fotogalerie</text>
  <text id="gf:text:subline" x="525" y="390" text-anchor="middle" font-family="Inter, system-ui, -apple-system, Segoe UI, Roboto, Helvetica, Arial" font-size="30" font-weight="500" class="gf-text" opacity="0.9">Teilt eure Fotos mit uns</text>

  <text id="gf:text:eventName" x="525" y="486" text-anchor="middle" font-family="Inter, system-ui, -apple-system, Segoe UI, Roboto, Helvetica, Arial" font-size="36" font-weight="600" class="gf-accent">Anna &amp; Ben</text>

  <rect id="gf:qr" x="335" y="580" width="380" height="380" rx="18" fill="#ffffff" stroke="var(--gf-accent)" stroke-width="6" opacity="0.95"/>

  <text id="gf:text:callToAction" x="525" y="1010" text-anchor="middle" font-family="Inter, system-ui, -apple-system, Segoe UI, Roboto, Helvetica, Arial" font-size="30" font-weight="500" class="gf-text">Einfach scannen &amp; hochladen</text>

  <text x="525" y="1295" text-anchor="middle" font-family="Inter, system-ui, -apple-system, Segoe UI, Roboto, Helvetica, Arial" font-size="22" font-weight="400" class="gf-text" opacity="0.75">gästefotos.com</text>
</svg>
