<svg xmlns="http://www.w3.org/2000/svg" width="105mm" height="148mm" viewBox="0 0 1050 1480">
  <style>
    :root {
      --gf-bg: #fbf7f1;
      --gf-text: #2b2b2b;
      --gf-accent: #6c7a5f;
    }
    #gf\:bg { fill: var(--gf-bg); }
    .gf-text { fill: var(--gf-text); }
    .gf-accent { fill: var(--gf-accent); }
  </style>

  <rect id="gf:bg" x="0" y="0" width="1050" height="1480" />

  <!-- simple floral corners (vector, minimal) -->
  <g opacity="0.9" class="gf-accent">
    <path d="M120 160c40-60 120-60 160 0-60-20-100 10-120 60-10-30-20-45-40-60z" fill="var(--gf-accent)" opacity="0.18" />
    <path d="M930 1320c-40 60-120 60-160 0 60 20 100-10 120-60 10 30 20 45 40 60z" fill="var(--gf-accent)" opacity="0.18" />
    <path d="M910 170c-60 30-130 10-150-60 50 30 90 10 120-20 10 35 20 60 30 80z" fill="var(--gf-accent)" opacity="0.12" />
    <path d="M140 1310c60-30 130-10 150 60-50-30-90-10-120 20-10-35-20-60-30-80z" fill="var(--gf-accent)" opacity="0.12" />
  </g>

  <text id="gf:text:headline" x="525" y="290" text-anchor="middle" font-family="Inter, system-ui, -apple-system, Segoe UI, Roboto, Helvetica, Arial" font-size="70" font-weight="700" class="gf-text">Unsere Fotogalerie</text>
  <text id="gf:text:subline" x="525" y="370" text-anchor="middle" font-family="Inter, system-ui, -apple-system, Segoe UI, Roboto, Helvetica, Arial" font-size="34" font-weight="500" class="gf-text">Teilt eure Fotos mit uns</text>

  <text id="gf:text:eventName" x="525" y="468" text-anchor="middle" font-family="Inter, system-ui, -apple-system, Segoe UI, Roboto, Helvetica, Arial" font-size="40" font-weight="600" class="gf-accent">Anna &amp; Ben</text>

  <rect id="gf:qr" x="335" y="580" width="380" height="380" rx="18" fill="#ffffff" stroke="var(--gf-accent)" stroke-width="6" />

  <text id="gf:text:callToAction" x="525" y="990" text-anchor="middle" font-family="Inter, system-ui, -apple-system, Segoe UI, Roboto, Helvetica, Arial" font-size="30" font-weight="500" class="gf-text">Einfach scannen &amp; hochladen</text>

  <text x="525" y="1280" text-anchor="middle" font-family="Inter, system-ui, -apple-system, Segoe UI, Roboto, Helvetica, Arial" font-size="22" font-weight="400" class="gf-text">gästefotos.com</text>
</svg>
